# xmcd
# 
# Track frame offsets:
#     150
#     24393
#     45624
#     59364
#     76702
#     94229
#     118520
#     138149
#     152143
#     171327
#     188839
#     209874
#     227343
#     244426
# 
# Disc length: 3429
# 
# Revision: 0
# Processed by: cddbd v1.5.2PL0 Copyright (c) Steve Scherf et al.
# Submitted via: BonkEnc v1.0.5
# 
DISCID=b90d630e
DTITLE=лафымайгс циыяцос - саббато
DYEAR=2003
DGENRE=Vocal
TTITLE0=Unknown1ghgh
TTITLE1=ghgfhtgfhgh
TTITLE2=ghgfhghctgf
TTITLE3=ghfghgh
TTITLE4=ghghtdghf
TTITLE5=dfyhgfhgfjhg
TTITLE6=hgjhjh
TTITLE7=gjhfghgfhgf
TTITLE8=hjhgjh
TTITLE9=hjfghg
TTITLE10=ghnhjgh
TTITLE11=ghjgfjhgfjh
TTITLE12=Unknown13
TTITLE13=Unknown14
EXTD=
EXTT0=
EXTT1=
EXTT2=
EXTT3=
EXTT4=
EXTT5=
EXTT6=
EXTT7=
EXTT8=
EXTT9=
EXTT10=
EXTT11=
EXTT12=
EXTT13=
PLAYORDER=
